PathFileType	4	(X/Y/Z)	/Users/niels/Desktop/University/Third Semester/Perception and Action/Exam/Gymnastics Motion Tracking/Code for Gym Tracking/Analyzed Data/Webcam_Backflip/id1_4_trajectory_Sports2D/id1_4_trajectory_Sports2D_px_person00.trc
DataRate	CameraRate	NumFrames	NumMarkers	Units	OrigDataRate	OrigDataStartFrame	OrigNumFrames
29.874476987447697	29.874476987447697	10	22	m	29.874476987447697	89	239
Frame#	Time	Hip			RHip			RKnee			RAnkle			RBigToe			RSmallToe			RHeel			LHip			LKnee			LAnkle			LBigToe			LSmallToe			LHeel			Neck			Head			Nose			RShoulder			RElbow			RWrist			LShoulder			LElbow			LWrist		
		X1	Y1	Z1	X2	Y2	Z2	X3	Y3	Z3	X4	Y4	Z4	X5	Y5	Z5	X6	Y6	Z6	X7	Y7	Z7	X8	Y8	Z8	X9	Y9	Z9	X10	Y10	Z10	X11	Y11	Z11	X12	Y12	Z12	X13	Y13	Z13	X14	Y14	Z14	X15	Y15	Z15	X16	Y16	Z16	X17	Y17	Z17	X18	Y18	Z18	X19	Y19	Z19	X20	Y20	Z20	X21	Y21	Z21	X22	Y22	Z22
89	2.9791316526610645	0.8143859249069145	-0.5832537182757493	0.0	0.8071733314246876	-0.5839391363502967	0.0	0.8821233470970226	-0.6762683077437052	0.0	0.8236410490312748	-0.7761999637619106	0.0	0.8627206714790288	-0.80771122011761	0.0	0.8467442696102635	-0.8072772200375307	0.0	0.8073675385082759	-0.7887388001122075	0.0	0.8282117127126885	-0.580889847264236	0.0	0.8948128241095992	-0.6701943019199001	0.0	0.8428071294420013	-0.7725918654435191	0.0	0.8792290104239955	-0.8041495769201462	0.0	0.8749252626494944	-0.8020268194534848	0.0	0.8288946476027247	-0.788397926608173	0.0	0.8830536603277976	-0.45650790131314123	0.0	0.9566277133567259	-0.4272868580397922	0.0	0.9331960295262434	-0.4604455791051584	0.0	0.8614230692619317	-0.4564077907707123	0.0	0.8549099942352542	-0.4779703863225508	0.0	0.9354480967733855	-0.4798753436901431	0.0	0.8801377910259044	-0.46155996369831465	0.0	0.9323486673869764	-0.480350920831033	0.0	0.976794496133956	-0.47854745643478563	0.0
90	3.0126050420168067	0.8165468062309156	-0.569596290958212	0.0	0.8092748222335782	-0.5691999506641899	0.0	0.8747700678779233	-0.6691709913902845	0.0	0.8230103600954928	-0.7730165907980866	0.0	0.8634856915741659	-0.805116157531674	0.0	0.8476251715943645	-0.8048386108599956	0.0	0.8070759770743554	-0.7861752305701686	0.0	0.8301822067243869	-0.5669443460874721	0.0	0.8881588656651447	-0.6643255808510935	0.0	0.8427652406740285	-0.7697674857251272	0.0	0.8788505296522664	-0.8015031193229026	0.0	0.8751283549275833	-0.7995845491865787	0.0	0.8295813293269274	-0.7857854955400966	0.0	0.8789045803295884	-0.4372842015502703	0.0	0.9523687937995985	-0.40437522984005364	0.0	0.9291833266765314	-0.4392091788090605	0.0	0.8569546766892582	-0.43651312705066175	0.0	0.8487919571034483	-0.4527070494471736	0.0	0.9269574266763572	-0.45166757087028997	0.0	0.8777368149681052	-0.4437200604687108	0.0	0.9268671599700222	-0.45795511032235586	0.0	0.9718118725311881	-0.4538180692281907	0.0
91	3.046078431372549	0.8190929169500354	-0.5594857061404191	0.0	0.8117253489858497	-0.558170247702514	0.0	0.8673999349567098	-0.6644312260536456	0.0	0.8224467227280057	-0.7716288503621463	0.0	0.863872456084576	-0.8039580996754898	0.0	0.8487808846506609	-0.804036712761271	0.0	0.8067509655560434	-0.7854089667113986	0.0	0.8327615003082938	-0.5566231494271993	0.0	0.8811653718694032	-0.6608100957242787	0.0	0.8423401527165203	-0.768483996227477	0.0	0.878221554484191	-0.8002259899734209	0.0	0.875018046967494	-0.7977992534548091	0.0	0.8294723463556053	-0.784610605467935	0.0	0.874826380574783	-0.42249767219297496	0.0	0.9476698909536554	-0.3849996263411901	0.0	0.925144235308077	-0.421959538920321	0.0	0.8523405438016328	-0.42069106317218613	0.0	0.8422783520562779	-0.43133653877538614	0.0	0.9170650408954201	-0.42628595712128475	0.0	0.8764506071851711	-0.4307680950926689	0.0	0.9214478777143688	-0.439532340235453	0.0	0.9668375101933002	-0.43157038635682093	0.0
92	3.079551820728291	0.8217955633983416	-0.552930457768937	0.0	0.8143401871120315	-0.550953688759394	0.0	0.8602347001586306	-0.6617081958559003	0.0	0.8215957763867161	-0.7716452941197368	0.0	0.8636716222479902	-0.8035654130541642	0.0	0.8496688305745268	-0.8041315584258015	0.0	0.8061044261248878	-0.786069579624235	0.0	0.8355934981462548	-0.5498730261825507	0.0	0.874542653310165	-0.6591036232701886	0.0	0.8417089508241784	-0.768193530357863	0.0	0.8776911696478708	-0.7995508728419088	0.0	0.87487373661971	-0.7963311300622368	0.0	0.8288526842363716	-0.7843123721135294	0.0	0.8709239191226834	-0.4124250479427189	0.0	0.9426112919433383	-0.36987803227941773	0.0	0.9210970860552706	-0.4093536695588534	0.0	0.8478079916667068	-0.4094585901396267	0.0	0.8360223502970079	-0.4144934519287236	0.0	0.9059765056335495	-0.4048358692359949	0.0	0.8755643799334702	-0.42243832453373703	0.0	0.9163253358614123	-0.4256214386505351	0.0	0.9614720481180897	-0.4130649580508267	0.0
93	3.1130252100840337	0.8245263277833736	-0.549918515405773	0.0	0.8170306861385619	-0.5475795470726363	0.0	0.8533511852529968	-0.6609727128725008	0.0	0.8201693505760957	-0.7731206563920898	0.0	0.8628423848043626	-0.8038137595223297	0.0	0.8498574321744891	-0.80492065859923	0.0	0.8049313164448801	-0.7881753988048618	0.0	0.8383781477092923	-0.5466550399818829	0.0	0.8686507266185647	-0.659141734723534	0.0	0.8408685089649272	-0.7689558511045411	0.0	0.8773125833263287	-0.7993270041306169	0.0	0.8747171517821325	-0.7953066772677901	0.0	0.8278626655061067	-0.7848822981917505	0.0	0.8671175875368816	-0.40694007284492767	0.0	0.9372520707276054	-0.35932478051517136	0.0	0.9169916837765189	-0.40157870689152114	0.0	0.843546317082363	-0.40296866259459174	0.0	0.8306657148332894	-0.402258759054131	0.0	0.8935071888526432	-0.3878755187825863	0.0	0.8742527712179555	-0.41798227358730544	0.0	0.911622646140439	-0.41610861639006574	0.0	0.9555373737244451	-0.3988446284052146	0.0
94	3.146498599439776	0.827155273422758	-0.5503550809293277	0.0	0.8197332349461159	-0.5479105763439212	0.0	0.8468207814766259	-0.6623882089375809	0.0	0.8181229004839754	-0.7762003473461914	0.0	0.8613607117251829	-0.804905694648373	0.0	0.8491104410311949	-0.8065522525473222	0.0	0.8032394059768302	-0.791776758407022	0.0	0.8408711178347139	-0.5468570343258622	0.0	0.8636281395303177	-0.6610797297553178	0.0	0.8397942754076178	-0.7710724063757931	0.0	0.8768862003643606	-0.7997859929430055	0.0	0.8743640008778086	-0.7951210364652779	0.0	0.826661002580564	-0.786563008233019	0.0	0.8633845019616945	-0.40560873417972715	0.0	0.9316082016440862	-0.35320978309533885	0.0	0.9129029325440963	-0.398188833370013	0.0	0.8398002006912436	-0.4010553080047436	0.0	0.8266362485806313	-0.3943713291514229	0.0	0.8795513150658503	-0.3755021298672952	0.0	0.8720328491168561	-0.4166707169716289	0.0	0.9072186112837795	-0.41054714728773684	0.0	0.948892658478105	-0.3888931674484598	0.0
95	3.179971988795518	0.829468064497357	-0.5540124821927158	0.0	0.822310256358167	-0.5516271938719529	0.0	0.8407963861499675	-0.6661518670612412	0.0	0.8157173105730045	-0.7809467209846294	0.0	0.8591549229122278	-0.8071827600905561	0.0	0.8473834934055325	-0.8093323068495335	0.0	0.8013080303872954	-0.7968160596515456	0.0	0.8428867265122437	-0.5502661775067206	0.0	0.8595047816355227	-0.6650597509272292	0.0	0.8385783942032349	-0.7748330831910644	0.0	0.876101175333774	-0.8013306290637756	0.0	0.8735762585630639	-0.7962277915071494	0.0	0.8255454067954248	-0.7896913814432606	0.0	0.8599473058879736	-0.4077176335800834	0.0	0.9256657995727544	-0.35111210753247635	0.0	0.9090938577696255	-0.398195728439128	0.0	0.8369141657977432	-0.40325241724327426	0.0	0.8238477213592847	-0.390514618974062	0.0	0.8642111765377426	-0.3676591998172862	0.0	0.8689490647804136	-0.41803340828941404	0.0	0.9027313351682774	-0.4084763464900393	0.0	0.9412514663929601	-0.38289039884007664	0.0
96	3.2134453781512606	0.8312126312088332	-0.5605405219412132	0.0	0.82452156811558	-0.5583047724312341	0.0	0.8355455985296452	-0.6722760869739668	0.0	0.8133594271269053	-0.7873172291866194	0.0	0.8562349526489206	-0.8109655029802766	0.0	0.8449009749609685	-0.813554611049526	0.0	0.7995494708194597	-0.8031771349439364	0.0	0.8443132206717732	-0.5566291314393826	0.0	0.8562089010164293	-0.6710910122815139	0.0	0.8374051504586643	-0.7804011331510837	0.0	0.8747151667624302	-0.8043571748040466	0.0	0.8722323618149257	-0.7989890718363883	0.0	0.8248414748064199	-0.7945973766273345	0.0	0.8570928063239145	-0.4124414800028901	0.0	0.9195159794842273	-0.35260742799799794	0.0	0.9057787065158063	-0.4006071897688215	0.0	0.8351042049320945	-0.4088800969271972	0.0	0.8216491989355138	-0.39050739923531425	0.0	0.8478864556900806	-0.36429168814671364	0.0	0.8653400641935236	-0.4218379762770755	0.0	0.8975412170904737	-0.4095995652241605	0.0	0.9321776076929338	-0.38046032029964105	0.0
97	3.246918767507003	0.8322164716373188	-0.5694411331670277	0.0	0.8260825312238914	-0.567396343707859	0.0	0.8313642810855985	-0.6804359515601318	0.0	0.8113723286520388	-0.795143755034933	0.0	0.8529322495551834	-0.8163765958395032	0.0	0.8422507094693962	-0.8193164039636254	0.0	0.7982956334386945	-0.8107334870820889	0.0	0.8450912527172508	-0.5655906723527149	0.0	0.8535302281817082	-0.6789911040906893	0.0	0.836392135548242	-0.7877347209822769	0.0	0.8727355014452742	-0.8090821938065681	0.0	0.8704280458919536	-0.8035753618563926	0.0	0.8246310452669	-0.801413387895735	0.0	0.8548372562548602	-0.41910184963248304	0.0	0.9134439538025502	-0.3572843894539128	0.0	0.9029077259774885	-0.40491732153254256	0.0	0.8341512638696265	-0.4171719445016084	0.0	0.8192234609415631	-0.3942355220115015	0.0	0.8314886106336864	-0.36519815674798217	0.0	0.8614912824800152	-0.4279650400901629	0.0	0.8909020000528435	-0.4137162056714429	0.0	0.9212361399774408	-0.3812869328625656	0.0
98	3.280392156862745	0.8324822400799627	-0.579974904406079	0.0	0.826782303186122	-0.578113368983013	0.0	0.8283788751526256	-0.689998822296735	0.0	0.8098941682502512	-0.8040746497420542	0.0	0.8498603600197466	-0.8232225711088653	0.0	0.8401203335937987	-0.8263847724720541	0.0	0.7976794829063756	-0.8192534328950055	0.0	0.8452123162707098	-0.5764799429109622	0.0	0.8511735652149226	-0.6883366345305253	0.0	0.8355022337941258	-0.7965121034621395	0.0	0.8704444180056651	-0.8154457612901834	0.0	0.8684129784240642	-0.8098923507988196	0.0	0.8246888352952645	-0.8098668780284796	0.0	0.8528905310839299	-0.4271770550809756	0.0	0.9078754949570218	-0.3645040416736603	0.0	0.9002966434068447	-0.4110128460787525	0.0	0.8334580241003909	-0.4272920435395259	0.0	0.8160767698311912	-0.4014023606679364	0.0	0.8162880164069278	-0.3699049445431411	0.0	0.857527335594756	-0.4361746334510576	0.0	0.8821605160403594	-0.4204700069992412	0.0	0.9080832742328605	-0.3850236779099485	0.0
